# xmcd
#
# Track frame offsets:
#	150
#	17368
#	39318
#	69334
#	87795
#	110908
#	132463
#	155419
#	179205
#	205520
#	230336
#
# Disc length: 3395 seconds
#
# Revision: 1
# Processed by: cddbd v1.5.2PL0 Copyright (c) Steve Scherf et al.
# Submitted via: EZCDAudioConverter 8.0.2.1
#
DISCID=8c0d410b
DTITLE=Bích Ngà - st. Trịnh Công Sơn. Hành Hương Trên Đồi Cao
DYEAR=2011
DGENRE=World Pop
TTITLE0=Rồi như đá ngây ngô
TTITLE1=Bay đi thầm lặng
TTITLE2=Tình xót xa vừa
TTITLE3=Này em có nhớ
TTITLE4=Yêu dấu tan theo
TTITLE5=Xin mặt trời ngủ yên
TTITLE6=Em đi trong chiều
TTITLE7=Lời mẹ ru
TTITLE8=Hành Hương Trên Đồi Cao
TTITLE9=Phúc âm buồn
TTITLE10=Nghe tiếng muôn trùng
EXTD=
EXTT0=
EXTT1=
EXTT2=
EXTT3=
EXTT4=
EXTT5=
EXTT6=
EXTT7=
EXTT8=
EXTT9=
EXTT10=
PLAYORDER=
